<mxfile host="app.diagrams.net" modified="2022-12-25T16:29:37.164Z" agent="5.0 (Macintosh; Intel Mac OS X 10_15_7) AppleWebKit/537.36 (KHTML, like Gecko) Chrome/107.0.0.0 Safari/537.36" version="20.7.4" etag="zayNMheFgpqbAC6rYOhH" type="github">
  <diagram id="7ttrupDpYsTnkOODYBIo" name="Page-1">
    <mxGraphModel dx="2044" dy="656" grid="1" gridSize="10" guides="1" tooltips="1" connect="1" arrows="1" fold="1" page="1" pageScale="1" pageWidth="850" pageHeight="1100" math="0" shadow="0">
      <root>
        <mxCell id="0" />
        <mxCell id="1" parent="0" />
        <mxCell id="VTZd0C3FNFbdi-J_sDwG-6" value="" style="rounded=0;whiteSpace=wrap;html=1;dashed=1;" vertex="1" parent="1">
          <mxGeometry x="110" y="170" width="580" height="200" as="geometry" />
        </mxCell>
        <mxCell id="VTZd0C3FNFbdi-J_sDwG-5" style="edgeStyle=orthogonalEdgeStyle;rounded=0;orthogonalLoop=1;jettySize=auto;html=1;entryX=0;entryY=0.5;entryDx=0;entryDy=0;" edge="1" parent="1" source="VTZd0C3FNFbdi-J_sDwG-1" target="VTZd0C3FNFbdi-J_sDwG-2">
          <mxGeometry relative="1" as="geometry" />
        </mxCell>
        <mxCell id="VTZd0C3FNFbdi-J_sDwG-1" value="Wiki media" style="rounded=1;whiteSpace=wrap;html=1;fillColor=#f5f5f5;fontColor=#333333;strokeColor=#666666;" vertex="1" parent="1">
          <mxGeometry x="-50" y="219" width="120" height="60" as="geometry" />
        </mxCell>
        <mxCell id="VTZd0C3FNFbdi-J_sDwG-10" style="edgeStyle=orthogonalEdgeStyle;rounded=0;orthogonalLoop=1;jettySize=auto;html=1;entryX=0;entryY=0.5;entryDx=0;entryDy=0;" edge="1" parent="1" source="VTZd0C3FNFbdi-J_sDwG-2" target="VTZd0C3FNFbdi-J_sDwG-9">
          <mxGeometry relative="1" as="geometry" />
        </mxCell>
        <mxCell id="VTZd0C3FNFbdi-J_sDwG-2" value="Kafka producer" style="rounded=1;whiteSpace=wrap;html=1;fillColor=#0050ef;fontColor=#ffffff;strokeColor=#001DBC;" vertex="1" parent="1">
          <mxGeometry x="160" y="219" width="120" height="60" as="geometry" />
        </mxCell>
        <mxCell id="VTZd0C3FNFbdi-J_sDwG-3" value="Text" style="text;html=1;strokeColor=none;fillColor=none;align=center;verticalAlign=middle;whiteSpace=wrap;rounded=0;" vertex="1" parent="1">
          <mxGeometry x="10" y="280" width="60" height="30" as="geometry" />
        </mxCell>
        <mxCell id="VTZd0C3FNFbdi-J_sDwG-12" style="edgeStyle=orthogonalEdgeStyle;rounded=0;orthogonalLoop=1;jettySize=auto;html=1;entryX=0;entryY=0.5;entryDx=0;entryDy=0;" edge="1" parent="1" source="VTZd0C3FNFbdi-J_sDwG-9" target="VTZd0C3FNFbdi-J_sDwG-11">
          <mxGeometry relative="1" as="geometry" />
        </mxCell>
        <mxCell id="VTZd0C3FNFbdi-J_sDwG-9" value="Kafka" style="rounded=0;whiteSpace=wrap;html=1;dashed=1;fillColor=#b0e3e6;strokeColor=#0e8088;" vertex="1" parent="1">
          <mxGeometry x="330" y="219" width="120" height="60" as="geometry" />
        </mxCell>
        <mxCell id="VTZd0C3FNFbdi-J_sDwG-13" style="edgeStyle=orthogonalEdgeStyle;rounded=0;orthogonalLoop=1;jettySize=auto;html=1;" edge="1" parent="1" source="VTZd0C3FNFbdi-J_sDwG-11">
          <mxGeometry relative="1" as="geometry">
            <mxPoint x="790" y="250" as="targetPoint" />
          </mxGeometry>
        </mxCell>
        <mxCell id="VTZd0C3FNFbdi-J_sDwG-11" value="Consumer" style="rounded=1;whiteSpace=wrap;html=1;fillColor=#0050ef;fontColor=#ffffff;strokeColor=#001DBC;" vertex="1" parent="1">
          <mxGeometry x="500" y="220" width="120" height="60" as="geometry" />
        </mxCell>
        <mxCell id="VTZd0C3FNFbdi-J_sDwG-14" value="OpenSearch" style="rounded=0;whiteSpace=wrap;html=1;dashed=1;" vertex="1" parent="1">
          <mxGeometry x="800" y="220" width="120" height="60" as="geometry" />
        </mxCell>
      </root>
    </mxGraphModel>
  </diagram>
</mxfile>
